<?xml version="1.0" encoding="UTF-8"?>
<svg id="Capa_1" data-name="Capa 1" xmlns="http://www.w3.org/2000/svg" version="1.1" viewBox="0 0 300 300">
  <defs>
    <style>
      .cls-1 {
        fill: #000;
        stroke-width: 0px;
      }
    </style>
  </defs>
  <path class="cls-1" d="M150,5C69.9,5,5,69.9,5,150s64.9,145,145,145,145-64.9,145-145S230.1,5,150,5ZM235,183.9c0,28.1-22.9,51.1-51.1,51.1h-67.9c-28.2,0-51.1-22.9-51.1-51.1v-67.9c0-28.2,22.9-51.1,51.1-51.1h67.9c28.1,0,51.1,22.9,51.1,51.1v67.9Z"/>
  <path class="cls-1" d="M150,123.2c-14.8,0-26.8,12-26.8,26.8s12,26.8,26.8,26.8,26.8-12,26.8-26.8-12-26.8-26.8-26.8Z"/>
  <path class="cls-1" d="M183.9,81h-67.9c-19.3,0-35.1,15.7-35.1,35.1v67.9c0,19.3,15.7,35.1,35.1,35.1h67.9c19.3,0,35.1-15.7,35.1-35.1v-67.9c0-19.4-15.7-35.1-35.1-35.1ZM150,191.9c-23.1,0-41.9-18.8-41.9-41.9s18.8-41.9,41.9-41.9,41.9,18.8,41.9,41.9-18.8,41.9-41.9,41.9ZM191.9,118.1c-5.5,0-10-4.5-10-10s4.5-10,10-10,10,4.5,10,10c0,5.5-4.5,10-10,10Z"/>
</svg>